<svg xmlns="http://www.w3.org/2000/svg" width="31.947" height="32.09" viewBox="0 0 31.947 32.09"><defs><style>.a{fill:#4a4a4a;}</style></defs><path class="a" d="M27.238,46.535a3.35,3.35,0,0,0-2.43-1.114,3.464,3.464,0,0,0-2.459,1.107l-2.272,2.264c-.187-.1-.374-.194-.554-.288-.259-.129-.5-.252-.712-.381A24.689,24.689,0,0,1,12.9,42.732a14.566,14.566,0,0,1-1.941-3.062c.589-.539,1.136-1.1,1.668-1.639.2-.2.4-.41.6-.611a3.3,3.3,0,0,0,0-4.975l-1.962-1.962c-.223-.223-.453-.453-.669-.683-.431-.446-.884-.906-1.351-1.337a3.4,3.4,0,0,0-2.408-1.057,3.521,3.521,0,0,0-2.444,1.057l-.014.014L1.934,30.943a5.259,5.259,0,0,0-1.56,3.343,12.6,12.6,0,0,0,.92,5.334,30.952,30.952,0,0,0,5.5,9.173,33.829,33.829,0,0,0,11.265,8.82,17.551,17.551,0,0,0,6.326,1.869c.151.007.309.014.453.014a5.417,5.417,0,0,0,4.148-1.783c.007-.014.022-.022.029-.036a16.343,16.343,0,0,1,1.258-1.3c.309-.295.625-.6.935-.927a3.586,3.586,0,0,0,1.085-2.487A3.455,3.455,0,0,0,31.184,50.5Zm2.574,7.57c-.007,0-.007.007,0,0-.28.3-.568.575-.877.877a18.9,18.9,0,0,0-1.387,1.438,3.465,3.465,0,0,1-2.7,1.143c-.108,0-.223,0-.331-.007a15.591,15.591,0,0,1-5.607-1.682A31.932,31.932,0,0,1,8.3,47.563,29.184,29.184,0,0,1,3.12,38.944a10.264,10.264,0,0,1-.805-4.5,3.3,3.3,0,0,1,.992-2.135l2.451-2.451a1.634,1.634,0,0,1,1.093-.51,1.538,1.538,0,0,1,1.05.5l.022.022c.439.41.855.834,1.294,1.287.223.23.453.46.683.7l1.962,1.962a1.372,1.372,0,0,1,0,2.228c-.208.208-.41.417-.618.618-.6.618-1.179,1.193-1.8,1.754-.014.014-.029.022-.036.036a1.466,1.466,0,0,0-.374,1.632l.022.065a15.756,15.756,0,0,0,2.322,3.788l.007.007a26.385,26.385,0,0,0,6.383,5.808,9.814,9.814,0,0,0,.884.482c.259.129.5.252.712.381.029.014.058.036.086.05a1.558,1.558,0,0,0,.712.18,1.537,1.537,0,0,0,1.093-.5l2.459-2.459a1.626,1.626,0,0,1,1.085-.539,1.464,1.464,0,0,1,1.035.525l.014.014L29.8,51.854A1.421,1.421,0,0,1,29.811,54.1Z" transform="translate(-0.344 -27.406)"/></svg>